<svg xmlns="http://www.w3.org/2000/svg" viewBox="0 0 96 96" id="fork-and-spoon"><path d="M75.40411 20.50349a21.79991 21.79991 0 0 0-1.37249-7.48974 12.03852 12.03852 0 0 0-22.69159 0 21.79966 21.79966 0 0 0-1.3725 7.48974c0 9.096 3.21411 11.09918 5.92065 14.06476 2.05158 2.24793 3.82843 4.76978 3.78229 8.78644-.14923 12.99927-3.83124 27.1748-1.60211 42.33563C58.65924 89.70906 60.29742 91 62.68573 91c2.38849 0 4.02667-1.291 4.61755-5.30969C69.53241 70.52949 65.8504 56.354 65.70111 43.35469c-.04608-4.01666 1.73077-6.53851 3.78235-8.78644C72.19006 31.60267 75.40411 29.5995 75.40411 20.50349zM41.90216 15.79109L40.97278 6.262A1.39764 1.39764 0 0 0 39.58173 5H39.512a1.39768 1.39768 0 0 0-1.3977 1.39765V23.58473a1.48265 1.48265 0 0 1-1.2901 1.61871 1.48273 1.48273 0 0 1-1.29016-1.61871V6.39766a1.39768 1.39768 0 0 0-2.79535 0V23.58473a1.48265 1.48265 0 0 1-1.2901 1.61871 1.48268 1.48268 0 0 1-1.2901-1.61871V6.39766a1.39768 1.39768 0 0 0-2.79535 0V23.58473A1.48273 1.48273 0 0 1 26.073 25.20344a1.48268 1.48268 0 0 1-1.29016-1.61871V6.39766A1.39764 1.39764 0 0 0 23.38519 5h-.06976a1.39768 1.39768 0 0 0-1.391 1.262l-.92932 9.52911c-.96918 9.93573-.30652 13.98157 3.46685 17.79712a11.80646 11.80646 0 0 1 3.88752 8.939C28.196 55.75227 24.41156 70.174 26.7027 85.5981 27.30914 89.68031 28.99384 91 31.44861 91s4.13855-1.31341 4.74585-5.40191C38.4856 70.174 34.70117 55.75227 34.54773 42.52724a11.80645 11.80645 0 0 1 3.88751-8.939C42.20862 29.77266 42.87128 25.72682 41.90216 15.79109z"></path></svg>